<?xml version="1.0" standalone="no"?>
<!DOCTYPE svg PUBLIC "-//W3C//DTD SVG 20010904//EN"
 "http://www.w3.org/TR/2001/REC-SVG-20010904/DTD/svg10.dtd">
<svg version="1.0" xmlns="http://www.w3.org/2000/svg"
 width="207.000000pt" height="170.000000pt" viewBox="0 0 207.000000 170.000000"
 preserveAspectRatio="xMidYMid meet">

<g transform="translate(0.000000,170.000000) scale(0.100000,-0.100000)"
fill="#000000" stroke="none">
<path d="M514 1346 c-38 -38 -45 -86 -17 -121 l16 -20 -8 20 c-27 69 -4 126
58 144 27 8 28 9 9 10 -15 1 -37 -12 -58 -33z"/>
<path d="M1553 1357 c37 -30 50 -77 30 -114 -11 -21 -13 -45 -7 -98 3 -38 11
-79 15 -90 8 -17 9 -17 5 5 -17 96 -18 158 -1 184 14 21 15 31 6 58 -12 35
-48 78 -65 78 -6 0 1 -10 17 -23z"/>
<path d="M1313 1355 c-16 -17 -17 -35 -3 -35 6 0 10 -17 8 -40 -2 -39 -2 -40
-21 -19 -10 11 -21 18 -25 15 -6 -7 50 -52 60 -48 5 1 8 -3 8 -8 0 -6 11 -23
25 -37 38 -41 82 -141 96 -215 12 -63 4 -168 -17 -222 -4 -11 -1 -16 11 -16
12 0 15 -5 10 -17 -17 -41 -12 -48 35 -48 l45 0 8 55 c9 57 2 284 -9 313 -4
12 -18 17 -44 17 -35 0 -39 3 -50 35 -6 19 -29 54 -51 77 -36 39 -39 46 -39
100 0 32 4 58 10 58 15 0 12 19 -4 36 -18 18 -37 17 -53 -1z"/>
<path d="M953 1340 c-53 -11 -143 -50 -143 -61 0 -5 -6 -9 -14 -9 -23 0 -132
-118 -156 -170 -20 -44 -27 -49 -59 -52 -46 -4 -49 -16 -49 -193 0 -175 3
-189 47 -193 51 -5 63 3 49 32 -8 19 -8 29 1 40 9 11 9 25 0 60 -6 26 -10 85
-7 135 4 78 9 99 40 163 59 118 141 189 261 225 62 18 168 19 228 2 24 -7 46
-13 49 -13 3 -1 12 -5 20 -11 13 -8 13 -7 1 8 -8 10 -16 15 -19 13 -2 -3 -18
2 -34 10 -36 19 -156 27 -215 14z"/>
<path d="M494 1120 c-6 -43 -7 -77 -4 -74 8 9 27 154 20 154 -4 0 -11 -36 -16
-80z"/>
<path d="M413 1043 c-7 -2 -13 -16 -13 -29 0 -14 4 -22 10 -19 6 4 10 -16 10
-54 0 -70 -17 -91 -23 -29 -2 24 -5 -4 -7 -62 -2 -91 -4 -98 -10 -55 -4 28 -7
71 -6 98 1 26 -2 47 -6 47 -4 0 -8 -4 -8 -9 0 -5 -10 -11 -22 -13 -21 -3 -23
-8 -23 -73 0 -60 3 -70 18 -73 26 -5 57 -38 69 -73 8 -25 15 -29 45 -29 l36 0
-6 68 c-4 37 -7 122 -7 190 0 120 0 122 -22 121 -13 0 -29 -3 -35 -6z"/>
<path d="M1610 876 c0 -96 -3 -181 -6 -190 -5 -13 2 -16 35 -16 34 0 41 3 41
19 0 11 3 22 8 24 4 3 6 44 4 91 -2 50 -7 84 -13 81 -5 -4 -8 20 -8 57 1 54 3
58 9 28 l7 -35 2 38 c2 54 -13 77 -49 77 l-30 0 0 -174z"/>
<path d="M753 1021 c-36 -23 -63 -68 -63 -106 0 -17 -4 -24 -12 -19 -7 4 -8 3
-4 -5 4 -6 12 -9 17 -6 9 6 13 -12 11 -50 0 -11 2 -14 5 -7 4 10 11 8 28 -8
25 -23 81 -36 120 -26 14 4 38 19 54 34 22 22 28 37 30 79 2 46 -1 55 -31 88
-43 47 -105 57 -155 26z m46 -13 c-13 -5 -32 -16 -41 -25 -16 -14 -18 -14 -18
-1 0 17 59 50 74 41 5 -4 -1 -10 -15 -15z m57 -33 c10 -8 14 -15 7 -15 -6 0
-15 5 -18 10 -3 6 -15 10 -26 10 -15 0 -18 -5 -13 -24 7 -31 -14 -45 -33 -21
-12 17 -13 15 -13 -18 0 -31 5 -39 31 -52 28 -15 33 -15 55 -1 26 17 41 57 28
77 -4 8 -3 9 4 5 28 -17 10 -71 -29 -91 -49 -26 -99 7 -99 66 0 59 59 89 106
54z m-116 -29 c0 -11 -19 -15 -25 -6 -3 5 1 10 9 10 9 0 16 -2 16 -4z"/>
<path d="M1239 1031 c11 -7 7 -13 -17 -25 -17 -9 -36 -24 -41 -33 -9 -16 -10
-16 -11 -1 0 9 12 26 26 37 15 12 22 21 16 21 -20 0 -71 -61 -77 -93 -4 -18
-2 -44 4 -60 6 -15 9 -32 7 -39 -1 -7 -1 -10 1 -6 2 4 20 -4 40 -18 47 -31 99
-31 146 0 30 20 36 22 41 9 3 -8 3 -20 -1 -25 -3 -7 -1 -8 5 -4 7 4 17 17 24
29 10 19 9 20 -4 9 -22 -18 -29 4 -16 54 21 77 -41 154 -122 154 -24 0 -31 -3
-21 -9z m71 -61 c43 -43 12 -123 -48 -123 -42 0 -72 28 -72 68 0 65 76 99 120
55z m-140 -45 c0 -8 -4 -15 -9 -15 -13 0 -22 16 -14 24 11 11 23 6 23 -9z"/>
<path d="M1232 971 c-10 -6 -9 -10 7 -14 25 -6 28 -25 5 -34 -11 -4 -22 1 -30
12 -13 17 -14 17 -14 -11 0 -44 21 -67 60 -67 38 0 60 23 60 64 0 43 -53 73
-88 50z"/>
<path d="M1370 1010 c0 -5 5 -10 10 -10 6 0 10 5 10 10 0 6 -4 10 -10 10 -5 0
-10 -4 -10 -10z"/>
<path d="M971 944 c0 -11 3 -14 6 -6 3 7 2 16 -1 19 -3 4 -6 -2 -5 -13z"/>
<path d="M1423 915 c0 -22 2 -30 4 -17 2 12 2 30 0 40 -3 9 -5 -1 -4 -23z"/>
<path d="M1710 856 c0 -46 -3 -91 -6 -100 -3 -9 -1 -16 5 -16 6 0 11 7 11 15
0 9 9 15 25 15 24 0 25 2 25 75 0 68 -2 75 -20 75 -11 0 -20 5 -20 10 0 6 -4
10 -10 10 -6 0 -10 -35 -10 -84z"/>
<path d="M967 869 c-9 -34 -44 -79 -60 -75 -7 1 -8 1 -3 -2 5 -3 -2 -11 -15
-18 -13 -7 -19 -13 -12 -14 32 -1 110 94 100 123 -2 7 -7 0 -10 -14z"/>
<path d="M756 775 c-3 -8 -1 -15 4 -15 6 0 10 7 10 15 0 8 -2 15 -4 15 -2 0
-6 -7 -10 -15z"/>
<path d="M1310 774 c0 -17 11 -18 33 -1 16 11 15 12 -8 13 -15 1 -25 -3 -25
-12z"/>
<path d="M812 764 c-11 -12 -8 -14 20 -13 18 0 26 3 18 6 -8 3 -17 9 -20 13
-3 4 -11 2 -18 -6z"/>
<path d="M1240 760 c-11 -7 -4 -10 25 -9 31 0 36 2 20 9 -26 11 -28 11 -45 0z"/>
<path d="M482 614 c-12 -30 -22 -64 -22 -76 0 -36 39 -66 124 -94 45 -15 88
-31 96 -37 13 -10 13 -9 0 5 -8 9 -52 28 -96 42 -120 39 -133 62 -93 157 12
27 20 51 18 54 -3 2 -14 -21 -27 -51z"/>
<path d="M1584 650 c2 -14 12 -43 21 -65 9 -22 14 -29 11 -15 -2 14 -12 43
-21 65 -9 22 -14 29 -11 15z"/>
<path d="M696 609 c21 -24 103 -78 147 -97 27 -11 29 -10 43 23 l14 35 81 0
c70 0 80 -2 75 -16 -3 -9 -6 -21 -6 -29 0 -16 -141 -17 -152 -1 -5 7 -8 4 -8
-6 0 -16 11 -18 83 -20 77 -2 78 -2 19 -5 -75 -5 -81 -26 -9 -31 54 -4 64 -22
13 -22 -19 0 -38 -4 -41 -10 -3 -5 -21 -10 -39 -10 -25 0 -35 5 -39 20 -4 17
-14 20 -56 20 -39 0 -51 -4 -51 -15 0 -8 -5 -15 -11 -15 -6 0 -9 -14 -7 -32 2
-30 0 -33 -22 -30 -13 1 -28 8 -32 15 -5 8 -8 7 -8 -5 0 -9 -6 -18 -12 -21 -9
-2 -13 -32 -13 -101 0 -60 -4 -99 -11 -104 -15 -10 -28 -82 -14 -82 15 0 12
-26 -6 -44 -14 -15 -11 -16 30 -16 37 0 44 3 39 16 -3 9 0 19 6 24 17 10 27
90 12 90 -17 0 -13 36 8 75 l18 34 6 -103 c7 -109 13 -136 29 -136 7 0 8 15 4
40 -8 51 -17 203 -10 172 3 -13 20 -30 39 -39 41 -20 86 -5 104 33 16 35 14
48 -10 78 -36 46 -111 32 -132 -24 -8 -21 -8 29 -1 58 l6 22 258 0 c281 0 270
2 270 -58 -1 -25 -1 -26 -12 -7 -16 29 -28 35 -69 35 -47 0 -69 -25 -69 -78 0
-36 4 -43 31 -58 36 -18 70 -13 100 17 l21 21 -7 -92 c-3 -50 -9 -98 -12 -106
-3 -8 1 -14 10 -14 12 0 17 16 22 68 11 120 22 198 24 165 0 -18 5 -33 10 -33
5 0 11 -16 13 -35 3 -25 0 -35 -10 -35 -18 0 -6 -77 14 -98 8 -7 12 -18 9 -23
-4 -5 12 -9 34 -9 23 0 41 5 41 11 0 5 -4 8 -9 5 -5 -3 -11 5 -13 19 -3 14 -1
25 5 25 12 0 2 71 -12 79 -15 10 -22 118 -9 146 10 21 8 30 -9 53 -24 32 -16
57 20 72 16 6 18 9 5 9 -9 1 -28 -13 -42 -31 -22 -29 -30 -32 -86 -35 -39 -2
-59 1 -55 7 4 6 11 8 16 5 5 -4 9 3 9 14 0 11 4 22 9 25 4 3 6 -7 5 -22 -2
-15 -1 -21 2 -14 3 6 10 12 15 12 6 0 7 -4 4 -10 -3 -6 -1 -10 5 -10 7 0 9 11
7 28 -10 56 -16 62 -67 62 -40 0 -50 -4 -55 -20 -5 -15 -15 -20 -41 -20 -19 0
-34 5 -34 10 0 6 -18 10 -40 10 -22 0 -40 5 -40 10 0 6 20 10 44 10 44 0 81
22 54 33 -7 3 2 6 20 6 18 1 31 5 28 9 -3 5 -21 8 -40 7 -20 -1 -36 2 -36 6 0
5 5 9 10 9 7 0 7 6 0 20 -10 18 -8 20 19 20 16 0 32 -4 35 -9 4 -5 -3 -7 -15
-4 -17 5 -20 2 -17 -13 2 -13 10 -18 26 -16 13 2 25 -3 28 -12 5 -14 10 -14
42 0 49 20 126 73 141 96 11 17 -2 18 -350 18 l-362 0 19 -21z m411 -67 c0
-22 -5 -28 -24 -30 -26 -2 -31 13 -7 22 13 5 14 9 4 21 -10 12 -9 15 7 15 15
0 20 -7 20 -28z m11 -49 c-10 -2 -28 -2 -40 0 -13 2 -5 4 17 4 22 1 32 -1 23
-4z m-292 -85 c4 -6 3 -8 -3 -5 -6 4 -13 0 -16 -8 -4 -10 -1 -12 11 -8 15 5
15 3 -2 -13 -13 -14 -20 -15 -23 -6 -3 6 -9 10 -14 6 -16 -10 -9 9 9 22 15 12
14 12 -8 8 -20 -5 -22 -3 -10 5 20 14 47 14 56 -1z m211 -4 c-3 -3 -12 -4 -19
-1 -8 3 -5 6 6 6 11 1 17 -2 13 -5z m101 -31 c3 -10 -21 -13 -100 -12 -56 1
-94 4 -84 6 15 4 16 7 5 14 -9 6 21 8 80 7 65 -2 96 -7 99 -15z m-308 -73
c-13 -8 -13 -10 2 -10 23 0 32 -18 18 -35 -14 -17 -37 -10 -44 13 -2 10 -4 2
-3 -17 3 -45 26 -60 69 -44 30 11 31 11 14 -2 -44 -33 -96 -5 -96 51 0 21 6
37 18 43 22 13 42 14 22 1z m64 -9 c10 -11 16 -29 13 -43 -4 -21 -4 -21 -6 4
0 15 -11 34 -23 42 -12 9 -18 16 -12 16 6 0 19 -9 28 -19z m380 0 c10 -11 16
-29 13 -43 -4 -21 -4 -21 -6 4 0 15 -11 34 -23 42 -12 9 -18 16 -12 16 6 0 19
-9 28 -19z m-39 -21 c0 -22 -42 -25 -48 -3 -3 11 -5 6 -6 -12 0 -17 4 -36 11
-43 16 -16 60 -15 78 1 12 10 12 9 1 -5 -17 -23 -59 -23 -83 -1 -18 16 -25 63
-11 77 13 12 58 2 58 -14z"/>
<path d="M1008 373 c6 -2 18 -2 25 0 6 3 1 5 -13 5 -14 0 -19 -2 -12 -5z"/>
<path d="M910 545 c0 -8 7 -15 15 -15 8 0 15 7 15 15 0 8 -7 15 -15 15 -8 0
-15 -7 -15 -15z"/>
<path d="M960 545 c0 -8 7 -15 15 -15 8 0 15 7 15 15 0 8 -7 15 -15 15 -8 0
-15 -7 -15 -15z"/>
<path d="M1007 554 c-9 -10 2 -24 19 -24 8 0 14 7 14 15 0 15 -21 21 -33 9z"/>
<path d="M1611 518 c-1 -10 -18 -26 -38 -37 -22 -11 -31 -20 -21 -21 24 0 72
44 65 61 -4 11 -6 10 -6 -3z"/>
<path d="M1500 450 c-8 -5 -10 -10 -5 -10 6 0 17 5 25 10 8 5 11 10 5 10 -5 0
-17 -5 -25 -10z"/>
<path d="M589 374 c3 -43 3 -44 -28 -44 -21 0 -31 -5 -31 -15 0 -8 4 -15 8
-15 5 0 8 -15 6 -32 -7 -88 -4 -136 10 -170 9 -21 16 -49 16 -63 0 -14 4 -25
10 -25 5 0 7 7 3 16 -3 9 3 21 16 30 11 8 21 25 21 38 0 25 -28 56 -51 56 -8
0 -3 -6 11 -13 18 -9 25 -21 25 -41 0 -43 -22 -43 -40 0 -19 45 -14 61 20 74
14 5 25 14 25 20 0 6 -11 3 -25 -6 -14 -9 -28 -14 -32 -10 -10 10 29 47 44 42
7 -3 13 -1 13 4 0 6 -4 10 -10 10 -5 0 -10 9 -10 20 0 11 -4 20 -9 20 -4 0 -6
-10 -4 -23 3 -14 -2 -29 -11 -36 -14 -12 -16 -10 -16 7 0 24 20 74 34 83 12 9
21 105 10 112 -5 3 -7 -15 -5 -39z"/>
<path d="M1482 365 c0 -16 2 -22 5 -12 2 9 2 23 0 30 -3 6 -5 -1 -5 -18z"/>
<path d="M1490 316 c0 -8 6 -16 12 -18 9 -3 6 -18 -11 -51 -20 -38 -22 -49
-11 -62 7 -8 17 -15 23 -15 6 0 2 6 -8 14 -11 8 -16 19 -12 30 6 15 10 14 31
-11 l24 -28 -22 -18 -21 -19 22 6 22 7 -17 -46 c-11 -30 -22 -45 -32 -43 -20
4 -25 45 -8 66 12 15 11 16 -4 3 -24 -18 -23 -56 1 -73 10 -7 21 -22 24 -33 4
-19 5 -19 6 2 0 11 10 46 22 76 18 47 19 63 11 108 -8 47 -10 49 -11 19 -2
-33 -2 -34 -16 -16 -21 27 -19 47 5 53 11 3 20 12 20 19 0 8 5 14 10 14 6 0
10 7 10 15 0 10 -11 15 -35 15 -24 0 -35 -5 -35 -14z"/>
<path d="M1028 63 c6 -2 18 -2 25 0 6 3 1 5 -13 5 -14 0 -19 -2 -12 -5z"/>
</g>
</svg>
