<?xml version="1.0" standalone="no"?>
<!DOCTYPE svg PUBLIC "-//W3C//DTD SVG 20010904//EN"
 "http://www.w3.org/TR/2001/REC-SVG-20010904/DTD/svg10.dtd">
<svg version="1.0" xmlns="http://www.w3.org/2000/svg"
 width="928.000000pt" height="811.000000pt" viewBox="0 0 928.000000 811.000000"
 preserveAspectRatio="xMidYMid meet">

<g transform="translate(0.000000,811.000000) scale(0.100000,-0.100000)"
fill="#000000" stroke="none">
<path d="M3766 7506 c-21 -8 -56 -32 -77 -52 -70 -68 -69 -54 -71 -684 l-3
-565 -315 -5 c-270 -5 -322 -8 -365 -24 -195 -70 -323 -183 -413 -362 -69
-138 -66 -78 -72 -1129 l-5 -950 -38 -56 c-51 -76 -88 -170 -148 -376 -79
-274 -126 -395 -192 -495 -29 -44 -57 -62 -57 -39 0 16 -161 141 -220 171
-127 65 -300 91 -396 60 -48 -15 -102 -55 -115 -84 -9 -19 -18 -21 -97 -21
-79 0 -92 -3 -148 -33 -125 -68 -178 -198 -138 -339 6 -21 3 -23 -38 -23 -143
0 -248 -88 -248 -207 1 -81 48 -154 138 -213 l23 -15 -27 -59 c-85 -186 85
-333 411 -352 234 -15 547 50 755 155 l77 39 -5 -127 c-5 -149 10 -228 65
-339 78 -159 235 -271 408 -292 44 -5 220 -14 390 -20 487 -17 809 -49 1355
-135 271 -43 314 -41 402 14 39 25 65 30 258 55 533 66 702 77 1335 85 l530 7
78 27 c135 47 230 118 300 225 92 140 130 304 110 478 -5 49 -8 91 -7 93 2 2
43 -21 91 -52 294 -184 633 -287 901 -274 125 6 203 29 271 83 91 71 125 153
97 235 -9 24 -16 47 -16 51 0 4 29 21 63 38 88 43 131 81 161 142 77 155 -26
293 -230 306 -46 2 -83 8 -81 11 54 97 67 175 43 249 -21 61 -79 118 -131 128
-47 9 -135 -2 -171 -20 -28 -15 -49 -12 -38 5 15 25 -9 90 -47 127 -85 86
-267 84 -456 -3 -77 -35 -208 -118 -282 -178 -43 -34 -45 -35 -70 -19 -14 8
-54 44 -88 78 -71 74 -132 190 -239 454 l-66 165 3 1085 4 1085 -23 79 c-62
220 -209 386 -417 472 l-70 29 -372 3 -373 3 0 548 c0 613 1 603 -71 684 -54
62 -111 87 -198 87 -142 0 -231 -40 -275 -125 -20 -39 -21 -56 -26 -615 l-5
-575 -457 -3 -457 -2 -3 567 c-3 563 -3 568 -25 608 -57 104 -115 137 -252
142 -67 2 -108 -1 -135 -11z m231 -102 c15 -12 39 -41 53 -65 l25 -44 0 -545
0 -545 -178 -3 -177 -2 2 564 c3 555 3 565 24 593 11 15 36 39 55 51 29 20 44
23 101 20 48 -3 75 -10 95 -24z m1487 -3 c17 -11 42 -38 54 -59 22 -40 22 -41
22 -591 l0 -551 -180 0 -180 0 0 553 c0 529 1 554 20 591 19 39 48 65 85 78
36 13 145 0 179 -21z m381 -1326 c189 -49 346 -176 431 -349 68 -140 65 -40
62 -1796 l-3 -1584 -75 -21 c-124 -35 -445 -161 -637 -251 -28 -13 -54 -24
-57 -24 -10 0 -471 -212 -480 -221 -20 -19 -24 -6 -25 87 -3 169 -64 298 -170
357 -43 24 -69 31 -130 35 -142 8 -274 -42 -376 -143 -74 -72 -116 -146 -166
-285 -21 -58 -41 -104 -46 -103 -6 2 -346 146 -643 273 -97 42 -490 194 -585
227 -135 46 -290 83 -347 83 l-48 0 0 1618 c0 1781 -4 1666 62 1802 38 79 157
202 238 245 127 68 28 63 1555 64 1212 1 1388 -1 1440 -14z m550 -9 c180 -50
338 -229 380 -431 16 -76 18 -669 6 -1542 l-6 -433 -45 30 c-75 50 -155 34
-148 -29 2 -19 15 -32 51 -52 26 -14 56 -35 68 -48 26 -28 120 -225 189 -396
64 -160 109 -250 166 -336 42 -63 119 -144 158 -166 18 -10 18 -12 -4 -43 -13
-18 -23 -48 -24 -69 -1 -30 3 -37 22 -39 25 -4 63 24 192 141 219 199 476 308
593 252 48 -23 55 -52 27 -110 -27 -56 -57 -79 -187 -144 -104 -52 -123 -70
-123 -116 0 -61 104 -104 216 -90 94 11 184 92 214 190 22 74 61 105 132 105
38 0 54 -6 80 -29 30 -27 33 -34 32 -88 -1 -124 -89 -226 -255 -291 -56 -22
-75 -35 -77 -51 -4 -27 -5 -27 200 14 240 48 338 47 396 -7 59 -56 5 -148
-124 -213 -80 -39 -97 -41 -181 -21 -75 19 -237 30 -297 21 -26 -4 -56 -15
-68 -24 -18 -16 -19 -19 -5 -33 12 -12 31 -14 89 -10 121 7 309 -41 358 -93
64 -68 -13 -167 -159 -201 -169 -40 -483 20 -737 140 -196 94 -375 221 -432
306 -70 105 -144 167 -280 234 -106 53 -161 99 -186 154 -23 51 -59 69 -92 47
-43 -28 -31 -104 27 -169 17 -20 30 -38 28 -40 -2 -2 -32 -6 -66 -9 l-63 -7
-3 1608 -3 1607 -22 70 c-31 101 -86 204 -148 278 -50 61 -136 137 -155 137
-5 0 -9 5 -9 11 0 17 200 5 275 -15z m-3965 -3129 l0 -574 -52 -11 c-56 -13
-135 -56 -184 -99 -35 -32 -113 -133 -137 -178 -8 -16 -26 -40 -39 -52 -38
-35 -182 -118 -266 -153 -284 -119 -720 -141 -873 -44 -55 34 -73 66 -66 115
11 84 63 105 237 95 123 -6 215 -26 268 -57 77 -45 94 -10 38 81 -29 47 -34
67 -39 140 -3 47 -9 93 -13 103 -8 21 -51 44 -159 83 -106 38 -158 87 -176
168 -22 98 14 176 103 220 57 28 83 31 141 15 39 -10 61 -35 72 -81 6 -22 4
-28 -9 -28 -20 0 -53 -36 -60 -66 -9 -35 10 -98 41 -135 38 -45 96 -69 169
-69 117 0 204 52 204 124 0 42 -33 72 -130 118 -123 59 -177 138 -146 213 36
85 241 74 383 -20 62 -41 145 -123 253 -250 82 -95 123 -130 140 -120 19 12
10 70 -20 133 l-29 63 50 75 c90 133 133 238 219 534 51 176 69 230 76 230 2
0 4 -258 4 -573z m5610 -303 c0 -4 -9 -22 -21 -41 -28 -45 -69 -65 -127 -61
l-47 3 78 39 c43 22 83 46 89 53 11 14 28 18 28 7z m-6600 -70 c38 -19 70 -39
70 -44 0 -10 -37 -20 -78 -20 -61 0 -122 49 -108 86 9 23 41 17 116 -22z
m-497 -194 c43 -11 119 -37 170 -58 l92 -38 6 -84 c3 -47 5 -86 4 -88 -1 -1
-37 5 -81 14 -43 8 -126 17 -184 19 -115 3 -179 23 -225 69 -20 20 -25 35 -25
76 0 44 5 56 29 81 25 25 37 29 83 29 30 0 89 -9 131 -20z m5889 -137 c155
-77 248 -259 248 -487 0 -174 -43 -290 -146 -393 -73 -74 -156 -117 -252 -132
-37 -5 -269 -12 -517 -15 -247 -3 -520 -10 -605 -16 -271 -18 -685 -59 -769
-76 l-34 -7 30 44 c30 44 153 265 153 275 0 3 11 29 24 57 13 29 34 84 46 124
l24 72 180 85 c389 182 807 362 981 421 84 29 167 48 325 78 14 3 75 4 135 4
103 -2 115 -4 177 -34z m-4131 2 c200 -50 822 -294 1322 -518 l137 -62 -6
-107 c-8 -120 -1 -138 47 -138 33 0 49 27 49 84 0 51 26 191 55 291 48 169
130 300 226 360 58 37 142 58 220 53 57 -3 74 -8 106 -34 21 -16 49 -52 63
-80 23 -45 25 -59 25 -189 -1 -126 -4 -149 -29 -225 -61 -185 -185 -413 -290
-533 -99 -115 -168 -133 -371 -98 -104 18 -302 46 -565 81 -93 13 -323 36
-495 50 -71 6 -267 15 -435 20 -262 8 -314 12 -370 29 -124 39 -208 113 -266
235 -57 121 -68 291 -27 429 50 170 186 324 320 363 59 17 194 12 284 -11z"/>
<path d="M3300 5619 c-300 -78 -520 -307 -581 -604 -39 -187 -11 -359 94 -574
24 -49 110 -149 177 -204 94 -78 260 -147 398 -165 82 -11 233 2 328 28 332
91 572 412 574 768 0 37 3 44 28 53 53 21 129 23 177 5 l45 -18 0 -63 c0 -130
42 -279 111 -392 133 -221 350 -354 623 -383 176 -19 327 15 475 107 79 49
216 179 241 229 8 16 22 40 30 54 27 41 70 157 85 232 22 101 19 258 -5 353
-118 462 -626 717 -1069 536 -210 -85 -386 -273 -452 -481 -13 -42 -21 -54
-36 -53 -10 1 -46 7 -79 13 -56 9 -125 3 -184 -15 -12 -4 -21 12 -38 67 -57
193 -240 386 -443 469 -150 61 -352 77 -499 38z m289 -100 c182 -29 344 -128
456 -279 69 -92 125 -263 125 -377 0 -126 -43 -271 -110 -371 -86 -127 -206
-218 -354 -269 -73 -25 -94 -28 -211 -28 -143 1 -202 13 -309 67 -130 66 -234
173 -301 312 -74 154 -85 343 -28 501 38 106 71 162 144 240 153 163 373 239
588 204z m1940 -25 c202 -67 356 -213 432 -409 26 -67 32 -98 37 -190 5 -125
-4 -182 -48 -292 -38 -96 -78 -153 -157 -230 -128 -125 -272 -183 -458 -186
-288 -3 -534 170 -638 448 -38 103 -48 253 -23 358 42 181 170 354 324 442 66
37 168 75 230 85 88 14 214 3 301 -26z"/>
<path d="M3162 5004 c-43 -30 -25 -213 31 -300 64 -103 175 -164 297 -164 103
0 171 29 246 104 71 72 99 135 110 249 6 72 5 76 -19 101 -51 51 -97 22 -97
-60 -1 -157 -88 -267 -223 -281 -59 -6 -131 18 -175 60 -44 40 -73 114 -79
196 -8 104 -36 134 -91 95z"/>
<path d="M5012 5004 c-20 -14 -22 -23 -22 -102 0 -68 6 -99 24 -144 58 -142
171 -219 321 -220 181 0 322 129 343 313 11 95 2 140 -29 158 -24 13 -29 13
-53 -2 -23 -16 -26 -24 -26 -75 0 -94 -25 -160 -79 -213 -160 -155 -391 -30
-391 212 0 48 -4 60 -22 73 -12 9 -27 16 -33 16 -6 0 -21 -7 -33 -16z"/>
<path d="M4036 4054 c-24 -23 -19 -65 13 -115 83 -129 203 -184 386 -177 94 3
108 6 178 41 148 73 231 213 155 260 -26 17 -62 0 -83 -39 -10 -20 -39 -53
-63 -74 -140 -124 -408 -84 -487 71 -10 19 -23 37 -29 41 -19 13 -54 9 -70 -8z"/>
<path d="M7640 2303 c0 -5 25 -16 56 -26 65 -22 167 -78 207 -115 29 -28 35
-17 13 26 -37 71 -128 121 -218 122 -32 0 -58 -3 -58 -7z"/>
<path d="M1668 2285 c-55 -29 -85 -65 -94 -110 -11 -59 1 -59 44 -1 23 30 61
74 84 96 47 45 35 51 -34 15z"/>
<path d="M2289 6691 c-18 -14 -24 -29 -24 -61 0 -50 29 -80 77 -80 41 0 63 14
78 50 15 35 0 84 -31 100 -29 16 -75 12 -100 -9z"/>
<path d="M7184 5994 c-9 -21 -22 -44 -30 -52 -21 -20 -14 -42 18 -61 15 -9 37
-28 48 -43 12 -16 28 -28 35 -28 21 0 45 29 45 54 0 12 11 32 25 44 40 35 28
82 -20 82 -12 0 -32 9 -45 20 -35 31 -59 25 -76 -16z"/>
<path d="M7941 3844 c-25 -32 -27 -62 -5 -92 34 -49 95 -49 119 -1 21 40 19
66 -10 94 -33 34 -77 33 -104 -1z"/>
<path d="M1107 3755 c-9 -8 -19 -24 -22 -35 -4 -11 -22 -27 -41 -35 -22 -9
-34 -21 -34 -33 0 -20 29 -52 47 -52 6 0 20 -17 30 -37 10 -21 26 -40 36 -41
23 -5 57 25 57 49 0 11 10 21 24 25 34 8 58 37 50 59 -4 9 -20 23 -36 29 -16
7 -37 28 -46 47 -19 39 -42 47 -65 24z"/>
<path d="M7214 832 c-6 -4 -14 -17 -18 -30 -4 -12 -21 -29 -37 -37 -38 -20
-38 -51 -1 -72 16 -9 34 -29 40 -45 15 -40 59 -40 75 1 6 17 25 36 44 45 42
20 42 41 -2 67 -19 11 -37 30 -41 42 -7 23 -22 37 -39 37 -5 0 -15 -4 -21 -8z"/>
</g>
</svg>
