<?xml version="1.0" standalone="no"?>
<!DOCTYPE svg PUBLIC "-//W3C//DTD SVG 20010904//EN"
 "http://www.w3.org/TR/2001/REC-SVG-20010904/DTD/svg10.dtd">
<svg version="1.0" xmlns="http://www.w3.org/2000/svg"
 width="195.000000pt" height="182.000000pt" viewBox="0 0 195.000000 182.000000"
 preserveAspectRatio="xMidYMid meet">

<g transform="translate(0.000000,182.000000) scale(0.100000,-0.100000)"
fill="#000000" stroke="none">
<path d="M1045 1611 l-70 -6 2 -47 2 -47 -57 1 c-59 1 -162 -18 -112 -21 14
-1 35 -4 48 -7 l23 -7 -28 -18 c-15 -11 -38 -19 -51 -19 -50 0 -122 -60 -122
-101 0 -11 -4 -19 -9 -19 -11 0 -26 59 -17 67 3 4 6 -2 6 -13 0 -11 8 -2 19
22 15 34 28 45 65 59 25 10 57 15 71 12 17 -3 23 -1 17 5 -6 6 -33 11 -60 11
-41 2 -55 -3 -77 -23 -48 -45 -53 -64 -51 -223 0 -81 -2 -147 -5 -147 -4 0
-10 -24 -13 -54 -9 -67 7 -130 40 -163 14 -14 24 -36 24 -52 0 -24 9 -35 50
-61 28 -18 50 -33 50 -35 0 -1 -7 -19 -15 -39 -19 -45 -30 -50 -184 -76 -68
-11 -132 -25 -142 -31 -11 -5 -25 -7 -32 -3 -6 4 -9 3 -4 -1 4 -5 0 -16 -8
-25 -8 -9 -19 -47 -24 -84 -6 -43 -19 -82 -34 -105 -27 -39 -92 -274 -83 -297
3 -8 -1 -26 -10 -40 -16 -24 -16 -24 14 -24 39 0 83 48 57 62 -24 14 -17 31
29 66 l43 32 -5 65 -4 65 56 58 c55 57 56 57 75 37 10 -11 31 -51 45 -90 24
-65 25 -67 19 -25 -3 25 -10 53 -14 62 -30 58 15 49 46 -9 14 -27 23 -37 19
-23 -11 42 -60 105 -98 125 -26 14 -32 22 -25 32 6 6 8 21 4 33 -4 11 -2 20 4
20 17 0 13 28 -6 39 -30 17 5 13 43 -5 23 -11 43 -32 59 -63 13 -25 24 -42 25
-38 1 17 -42 88 -60 99 -22 14 -27 38 -7 38 35 1 126 13 156 21 32 8 38 5 78
-31 44 -41 57 -47 68 -31 3 5 -7 11 -22 13 -24 3 -28 8 -28 35 -1 36 27 51 54
30 9 -6 7 -1 -4 12 l-20 24 20 -7 c11 -4 60 -16 108 -27 48 -10 92 -21 97 -24
6 -4 1 -23 -10 -45 -22 -43 -25 -54 -11 -46 25 16 37 -48 56 -290 3 -40 16
-86 40 -137 l34 -77 56 0 56 0 -2 80 c-1 48 -6 83 -13 88 -7 4 -20 36 -29 72
-10 36 -34 105 -54 153 -29 67 -39 84 -45 70 -4 -10 -5 -2 -1 17 3 19 6 41 6
48 0 16 7 15 31 -6 11 -9 3 5 -18 31 l-38 48 20 22 c11 12 22 29 24 37 8 27
28 -25 34 -92 3 -35 12 -81 21 -103 8 -21 16 -72 18 -112 2 -40 7 -78 11 -85
4 -6 11 -25 15 -42 13 -46 2 140 -12 205 -6 30 -19 83 -30 118 -11 35 -18 66
-16 68 7 6 37 -9 37 -18 0 -4 6 -6 13 -4 16 6 178 -58 180 -70 1 -6 6 -9 11
-7 5 2 6 -4 2 -13 -3 -10 -2 -14 5 -10 6 4 10 1 8 -6 -3 -27 1 -40 12 -33 8 4
9 -1 4 -17 -5 -19 -4 -21 5 -9 8 11 9 5 5 -25 -4 -27 -3 -35 3 -26 7 10 12 7
21 -15 9 -24 10 -24 5 -4 -20 88 -43 144 -73 179 -12 13 -21 22 -21 19 0 -3
-43 9 -96 28 -53 19 -98 34 -101 34 -2 0 -1 4 2 10 3 5 0 7 -8 4 -8 -3 -21 6
-31 20 -20 32 -20 46 0 46 9 0 12 -5 8 -12 -4 -7 -3 -8 5 -4 19 12 2 26 -32
27 -27 2 -28 3 -6 6 14 2 44 0 68 -6 37 -8 40 -7 29 6 -11 14 -10 15 10 9 20
-7 22 -4 22 24 0 21 8 38 22 49 18 15 21 27 19 69 -1 41 3 59 24 89 32 48 34
121 5 178 -11 22 -20 52 -20 67 0 20 -7 32 -24 39 -14 7 -27 21 -30 34 -8 31
-86 124 -119 141 -16 9 -25 20 -21 26 4 6 3 8 -4 5 -15 -10 -42 3 -42 19 0 8
8 14 18 15 15 0 14 1 -2 8 -18 7 -16 9 12 19 24 8 32 8 33 -1 0 -7 4 -3 9 8 8
19 9 19 9 -3 1 -19 -3 -22 -19 -17 -11 4 -20 2 -20 -4 0 -6 5 -11 11 -11 5 0
8 -4 4 -9 -3 -5 0 -13 7 -17 7 -4 10 -3 5 1 -4 5 0 16 8 25 8 9 18 37 21 63 6
38 4 48 -10 53 -9 4 -24 -1 -34 -10 -17 -14 -19 -14 -34 4 -12 13 -13 20 -5
24 13 5 12 5 -88 -3z m28 -18 c-13 -2 -33 -2 -45 0 -13 2 -3 4 22 4 25 0 35
-2 23 -4z m135 -31 c3 -18 -1 -22 -25 -21 -15 0 -22 3 -15 6 6 2 9 10 5 16 -4
7 0 8 12 3 16 -6 16 -4 4 10 -12 15 -12 17 1 12 8 -2 16 -14 18 -26z m-98 -11
c0 -46 -55 -51 -60 -6 -4 32 -1 35 30 35 26 0 30 -3 30 -29z m41 -29 c-7 -2
-18 1 -23 6 -8 8 -4 9 13 5 13 -4 18 -8 10 -11z m-42 -50 c-3 -36 -4 -38 -31
-34 -23 4 -28 9 -28 32 0 19 6 30 18 33 39 10 43 8 41 -31z m-167 19 c-9 -5
-11 -17 -6 -34 6 -25 4 -27 -29 -27 -20 0 -39 5 -43 11 -4 8 3 9 24 4 18 -3
33 -2 37 4 6 10 -7 15 -27 12 -5 0 -8 5 -8 13 0 14 18 23 50 25 12 0 12 -1 2
-8z m55 3 c-3 -3 -12 -4 -19 -1 -8 3 -5 6 6 6 11 1 17 -2 13 -5z m-279 -40
c-15 -8 -34 -27 -42 -42 -9 -15 -15 -22 -16 -15 0 19 50 73 68 73 11 -1 8 -6
-10 -16z m282 -18 c8 -3 2 -4 -13 -1 -21 4 -27 2 -21 -6 4 -7 3 -9 -4 -6 -5 4
-9 15 -7 25 2 9 4 19 4 21 1 3 7 -2 14 -11 6 -9 19 -18 27 -22z m150 -12 c0
-2 -7 -4 -15 -4 -8 0 -15 4 -15 10 0 5 7 7 15 4 8 -4 15 -8 15 -10z m-367 -25
c-11 -12 -29 -19 -39 -17 -16 3 -14 6 11 20 42 22 53 21 28 -3z m295 11 c6 0
12 -4 12 -10 0 -11 -30 -13 -54 -4 -25 9 -19 27 7 20 12 -3 28 -6 35 -6z
m-178 -4 c0 -2 -9 -6 -20 -9 -11 -3 -20 -1 -20 4 0 5 9 9 20 9 11 0 20 -2 20
-4z m13 -41 c-3 -17 -30 -17 -37 0 -4 13 -1 16 17 13 12 -2 21 -7 20 -13z
m-166 -31 c-6 -6 -47 9 -47 17 0 5 11 3 25 -3 14 -6 24 -13 22 -14z m501 7
c12 -6 26 -20 32 -31 10 -19 7 -20 -127 -20 -167 0 -213 -7 -213 -29 0 -10 -9
-16 -25 -16 -18 0 -24 4 -20 15 4 13 4 13 -7 0 -24 -28 -55 -20 -49 13 1 5 -4
5 -10 1 -9 -5 -10 -2 -6 9 4 10 2 17 -5 17 -7 0 -6 5 2 15 9 11 17 12 30 5 25
-13 60 -13 60 1 0 5 5 7 10 4 6 -3 10 -2 10 4 0 5 12 14 28 20 34 14 261 7
290 -8z m-433 -11 c3 -5 2 -10 -4 -10 -5 0 -13 5 -16 10 -3 6 -2 10 4 10 5 0
13 -4 16 -10z m-90 -50 c-7 -11 62 -33 81 -26 8 3 13 2 10 -3 -3 -5 8 -14 24
-20 17 -5 29 -16 28 -22 -2 -7 6 -14 17 -16 17 -3 17 -2 5 7 -13 9 -13 12 2
24 13 9 70 13 220 14 111 1 210 -1 220 -4 14 -4 18 -16 18 -60 l0 -54 -42 -2
-43 -1 43 -4 c37 -4 42 -7 42 -29 0 -14 4 -23 9 -20 4 3 6 18 4 33 -4 22 -2
25 6 13 6 -8 11 -33 11 -55 -1 -35 -2 -38 -14 -23 -11 15 -14 8 -20 -59 -3
-42 -6 -93 -6 -114 0 -50 -27 -69 -103 -72 -31 -1 -57 -5 -57 -9 0 -11 -222
-10 -239 1 -17 11 -5 32 14 24 8 -3 15 0 15 5 0 6 -8 13 -19 17 -15 4 -19 20
-25 82 -3 42 -6 116 -6 164 0 78 2 90 20 101 11 7 20 17 20 22 0 4 -7 2 -16
-5 -15 -12 -16 -11 -10 7 4 15 2 24 -9 28 -8 3 -15 2 -16 -2 0 -4 -2 -20 -4
-37 -5 -39 -4 -298 1 -350 2 -28 1 -35 -6 -25 -5 8 -15 15 -22 15 -9 0 -15 25
-19 85 l-5 85 -2 -83 -2 -83 -37 7 c-42 7 -56 14 -30 14 15 0 17 13 17 99 0
55 5 112 10 128 8 23 8 25 -2 12 -7 -9 -19 -15 -26 -13 -7 1 -8 0 -2 -3 6 -3
10 -48 10 -109 0 -84 -3 -104 -14 -104 -25 0 -29 20 -11 57 13 27 15 41 7 53
-5 9 -8 28 -5 42 10 51 -56 85 -109 57 -16 -9 -19 -8 -14 3 3 7 9 21 12 31 4
9 11 17 18 17 7 0 10 26 8 82 l-4 83 26 1 c14 1 24 -2 21 -6z m-64 -80 c-9
-23 -10 -22 -7 10 7 68 9 76 13 45 2 -17 0 -42 -6 -55z m636 58 c-3 -8 -6 -5
-6 6 -1 11 2 17 5 13 3 -3 4 -12 1 -19z m-294 -5 c-7 -2 -21 -2 -30 0 -10 3
-4 5 12 5 17 0 24 -2 18 -5z m264 1 c-3 -3 -12 -4 -19 -1 -8 3 -5 6 6 6 11 1
17 -2 13 -5z m-597 -117 c0 -5 -4 -5 -10 -2 -5 3 -10 14 -10 23 0 15 2 15 10
2 5 -8 10 -19 10 -23z m90 -115 c0 -15 -2 -15 -10 -2 -13 20 -13 33 0 25 6 -3
10 -14 10 -23z m-33 -44 c-3 -8 -6 -5 -6 6 -1 11 2 17 5 13 3 -3 4 -12 1 -19z
m-37 -3 c0 -8 -4 -15 -10 -15 -5 0 -10 7 -10 15 0 8 5 15 10 15 6 0 10 -7 10
-15z m10 -96 c0 -14 -16 -11 -29 5 -10 12 -8 13 8 9 12 -3 21 -9 21 -14z m149
-56 c14 10 14 10 3 -5 -12 -15 -9 -18 27 -29 43 -13 64 -45 40 -60 -7 -4 -16
-6 -19 -4 -3 2 -25 6 -48 9 -41 5 -128 42 -138 58 -3 4 11 8 31 8 28 0 36 4
32 14 -5 11 0 13 25 5 22 -6 36 -5 47 4z m441 -69 c0 -8 -5 -12 -10 -9 -6 4
-8 11 -5 16 9 14 15 11 15 -7z m-295 -24 c3 -5 1 -10 -4 -10 -6 0 -11 5 -11
10 0 6 2 10 4 10 3 0 8 -4 11 -10z m103 -27 c-10 -2 -28 -2 -40 0 -13 2 -5 4
17 4 22 1 32 -1 23 -4z m59 -67 c-22 -32 -49 -40 -93 -26 -35 12 -35 12 -17
32 14 16 27 19 61 15 23 -2 45 0 48 5 3 5 8 7 11 4 3 -3 -2 -16 -10 -30z m-17
-66 c7 -13 7 -20 1 -20 -6 0 -15 9 -21 20 -7 13 -7 20 -1 20 6 0 15 -9 21 -20z
m56 -226 c14 -56 15 -78 7 -105 -11 -33 -11 -32 -12 27 -1 33 -8 83 -16 110
-8 27 -15 54 -15 59 1 22 19 -24 36 -91z m44 -229 c0 -8 -7 -15 -15 -15 -16 0
-20 12 -8 23 11 12 23 8 23 -8z"/>
<path d="M1320 1201 c0 -6 5 -13 10 -16 6 -3 10 1 10 9 0 9 -4 16 -10 16 -5 0
-10 -4 -10 -9z"/>
<path d="M710 1150 c-9 -6 -10 -10 -3 -10 6 0 15 5 18 10 8 12 4 12 -15 0z"/>
<path d="M1225 1149 l-90 -5 87 -2 c47 -1 93 -5 102 -8 9 -3 16 -1 16 6 0 6
-4 9 -9 6 -5 -4 -11 -3 -13 1 -1 5 -43 5 -93 2z"/>
<path d="M755 1140 c11 -5 27 -9 35 -9 9 0 8 4 -5 9 -11 5 -27 9 -35 9 -9 0
-8 -4 5 -9z"/>
<path d="M950 1040 c0 -90 2 -100 20 -110 12 -6 33 -9 48 -7 l27 4 -27 2 -28
1 -2 88 -2 87 -3 -82 c-5 -115 -23 -105 -23 12 l0 94 73 4 72 3 -77 2 -78 2 0
-100z"/>
<path d="M819 1121 c8 -5 17 -26 21 -47 l8 -39 1 36 c1 34 -13 59 -33 59 -6 0
-5 -4 3 -9z"/>
<path d="M708 1113 c7 -3 16 -2 19 1 4 3 -2 6 -13 5 -11 0 -14 -3 -6 -6z"/>
<path d="M1108 1103 c23 -2 59 -2 80 0 20 2 1 4 -43 4 -44 0 -61 -2 -37 -4z"/>
<path d="M698 1093 c7 -3 16 -2 19 1 4 3 -2 6 -13 5 -11 0 -14 -3 -6 -6z"/>
<path d="M1225 1080 c-36 -40 -15 -100 34 -100 58 0 88 58 51 98 -26 27 -61
28 -85 2z m85 -35 c0 -8 -7 -15 -15 -15 -8 0 -15 7 -15 15 0 8 7 15 15 15 8 0
15 -7 15 -15z"/>
<path d="M738 1083 c7 -3 16 -2 19 1 4 3 -2 6 -13 5 -11 0 -14 -3 -6 -6z"/>
<path d="M1024 1065 c-19 -19 -23 -31 -18 -48 9 -32 34 -57 56 -57 23 0 68 43
68 65 0 9 -11 27 -25 40 -31 32 -50 31 -81 0z m81 -45 c-5 -8 -11 -8 -17 -2
-6 6 -7 16 -3 22 5 8 11 8 17 2 6 -6 7 -16 3 -22z"/>
<path d="M813 940 c0 -47 2 -66 4 -42 2 23 2 61 0 85 -2 23 -4 4 -4 -43z"/>
<path d="M1252 943 c53 -3 68 -7 71 -21 3 -12 5 -11 6 6 1 21 -2 22 -71 20
l-73 -2 67 -3z"/>
<path d="M1077 933 c18 -2 50 -2 70 0 21 2 7 4 -32 4 -38 0 -55 -2 -38 -4z"/>
<path d="M1200 870 c-30 -5 -79 -8 -108 -9 l-53 -1 3 -37 c2 -20 9 -38 16 -41
7 -2 12 0 11 5 -3 19 2 33 12 33 5 0 7 -4 4 -10 -4 -6 17 -10 55 -10 45 0 62
4 66 15 4 8 10 15 16 15 5 0 6 -4 3 -10 -3 -5 3 -10 14 -10 17 0 21 6 21 35 0
19 -1 34 -2 34 -2 -1 -28 -5 -58 -9z m30 -20 c0 -5 -4 -10 -10 -10 -5 0 -10 5
-10 10 0 6 5 10 10 10 6 0 10 -4 10 -10z m-120 -8 c0 -4 -9 -8 -20 -9 -11 -1
-20 2 -20 5 0 4 9 8 20 9 11 1 20 -2 20 -5z m43 1 c-7 -2 -19 -2 -25 0 -7 3
-2 5 12 5 14 0 19 -2 13 -5z m7 -23 c0 -5 -9 -10 -20 -10 -11 0 -20 5 -20 10
0 6 9 10 20 10 11 0 20 -4 20 -10z"/>
<path d="M1310 850 c0 -5 5 -10 10 -10 6 0 10 5 10 10 0 6 -4 10 -10 10 -5 0
-10 -4 -10 -10z"/>
<path d="M1152 1600 c0 -14 2 -19 5 -12 2 6 2 18 0 25 -3 6 -5 1 -5 -13z"/>
<path d="M830 525 c0 -10 30 -65 36 -65 2 0 -2 13 -10 29 -9 16 -12 31 -9 35
4 3 1 6 -5 6 -7 0 -12 -2 -12 -5z"/>
<path d="M941 511 c7 -11 15 -18 18 -16 2 3 20 -7 39 -22 20 -15 32 -21 28
-15 -4 6 -27 26 -52 43 -36 24 -43 27 -33 10z"/>
<path d="M1312 465 c0 -11 4 -31 8 -45 6 -20 8 -21 8 -5 0 11 -4 31 -8 45 -6
20 -8 21 -8 5z"/>
<path d="M991 420 c14 -31 19 -36 19 -24 0 6 -7 19 -16 30 -14 18 -14 18 -3
-6z"/>
<path d="M895 400 c9 -16 18 -30 21 -30 2 0 -2 14 -11 30 -9 17 -18 30 -21 30
-2 0 2 -13 11 -30z"/>
<path d="M630 348 c19 -56 22 -235 5 -310 l-8 -38 72 0 c54 0 71 3 71 14 0 26
-31 101 -50 121 -21 22 -40 101 -40 164 0 25 -3 32 -9 22 -7 -10 -14 -2 -29
33 -28 61 -33 58 -12 -6z m37 -140 c-3 -8 -6 -5 -6 6 -1 11 2 17 5 13 3 -3 4
-12 1 -19z m0 -50 c-3 -8 -6 -5 -6 6 -1 11 2 17 5 13 3 -3 4 -12 1 -19z"/>
<path d="M1016 367 c3 -10 9 -15 12 -12 3 3 0 11 -7 18 -10 9 -11 8 -5 -6z"/>
<path d="M1332 360 c0 -14 2 -19 5 -12 2 6 2 18 0 25 -3 6 -5 1 -5 -13z"/>
<path d="M1390 338 c-11 -18 -20 -43 -20 -55 0 -36 -18 -36 -23 -1 -2 18 -4
-25 -3 -97 0 -93 1 -105 3 -40 3 56 8 92 16 97 7 4 38 10 70 14 52 6 57 9 57
31 0 13 -7 37 -15 53 -22 42 -59 41 -85 -2z m63 -9 c21 -38 22 -59 2 -59 -18
0 -19 12 -3 28 7 7 8 12 2 12 -6 0 -17 -12 -24 -27 l-14 -28 -4 29 c-3 22 -6
26 -12 16 -17 -27 -21 -2 -5 29 20 39 35 39 58 0z"/>
<path d="M1512 330 c0 -19 2 -27 5 -17 2 9 2 25 0 35 -3 9 -5 1 -5 -18z"/>
<path d="M950 300 c11 -22 23 -40 25 -40 3 0 -4 18 -15 40 -11 22 -23 40 -25
40 -3 0 4 -18 15 -40z"/>
<path d="M1541 310 c0 -8 4 -22 9 -30 12 -18 12 -2 0 25 -6 13 -9 15 -9 5z"/>
<path d="M1499 275 c-6 -22 -1 -47 9 -41 10 6 7 -184 -2 -211 -12 -33 17 -30
39 4 15 22 16 32 6 60 -7 18 -15 64 -18 102 -3 39 -9 68 -14 66 -4 -3 -9 5
-11 17 -3 22 -4 22 -9 3z"/>
<path d="M1076 247 c3 -10 9 -15 12 -12 3 3 0 11 -7 18 -10 9 -11 8 -5 -6z"/>
<path d="M1560 255 c0 -3 10 -16 21 -28 l21 -22 -11 22 c-11 22 -31 40 -31 28z"/>
<path d="M986 237 c3 -10 9 -15 12 -12 3 3 0 11 -7 18 -10 9 -11 8 -5 -6z"/>
<path d="M1020 170 c11 -22 23 -40 25 -40 3 0 -4 18 -15 40 -11 22 -23 40 -25
40 -3 0 4 -18 15 -40z"/>
<path d="M1596 180 c25 -104 43 -162 43 -145 1 23 -22 109 -38 145 l-12 25 7
-25z"/>
<path d="M1413 173 c15 -2 37 -2 50 0 12 2 0 4 -28 4 -27 0 -38 -2 -22 -4z"/>
<path d="M1085 50 c14 -27 28 -50 30 -50 3 0 -6 23 -20 50 -14 28 -28 50 -30
50 -3 0 6 -22 20 -50z"/>
</g>
</svg>
