<?xml version="1.0" standalone="no"?>
<!DOCTYPE svg PUBLIC "-//W3C//DTD SVG 20010904//EN"
 "http://www.w3.org/TR/2001/REC-SVG-20010904/DTD/svg10.dtd">
<svg version="1.0" xmlns="http://www.w3.org/2000/svg"
 width="2579.000000pt" height="2484.000000pt" viewBox="0 0 2579.000000 2484.000000"
 preserveAspectRatio="xMidYMid meet">

<g transform="translate(0.000000,2484.000000) scale(0.100000,-0.100000)"
fill="#000000" stroke="none">
<path d="M13205 23120 c-3 -5 -19 -7 -35 -3 -34 6 -93 -7 -197 -45 -74 -27
-182 -92 -173 -103 6 -8 -29 -49 -43 -49 -5 0 1 9 14 20 13 10 20 19 14 20 -5
0 -31 -20 -56 -44 -36 -34 -44 -47 -35 -57 8 -9 7 -11 -7 -6 -13 5 -24 -4 -42
-34 -14 -22 -23 -45 -19 -51 4 -7 3 -8 -5 -4 -14 9 -85 -139 -75 -156 4 -6 3
-8 -4 -5 -12 8 -27 -67 -16 -84 4 -7 3 -9 -3 -6 -12 7 -26 -109 -19 -145 3
-13 8 -48 10 -78 7 -74 49 -193 63 -179 8 8 13 7 18 -2 5 -7 4 -10 -2 -6 -7 4
-10 -3 -9 -17 0 -13 5 -22 10 -18 5 3 6 -2 3 -12 -4 -9 -3 -15 2 -12 5 3 12
-1 15 -10 4 -10 2 -13 -6 -8 -7 4 -1 -8 12 -27 26 -36 68 -83 56 -62 -3 6 -2
14 3 18 6 3 8 -5 5 -18 -4 -26 46 -84 64 -73 5 3 9 -2 8 -12 -1 -12 6 -16 24
-14 17 1 21 -1 12 -7 -11 -6 -7 -13 16 -30 32 -23 47 -27 37 -11 -3 6 1 7 10
3 13 -4 14 -7 4 -14 -10 -6 2 -15 36 -30 49 -23 58 -26 93 -32 16 -4 17 -33
22 -403 4 -330 7 -399 19 -396 7 1 110 6 227 9 l214 6 -2 384 c-2 301 0 383
10 383 6 0 12 4 12 9 0 5 8 8 18 7 9 0 16 4 15 11 -2 7 4 10 12 6 9 -3 39 10
70 31 30 20 57 36 61 36 13 0 103 84 98 92 -3 4 0 7 7 6 6 -2 14 3 17 11 3 10
0 11 -9 5 -12 -7 -12 -5 0 9 7 9 17 15 21 12 12 -7 34 24 77 105 51 97 64 134
70 195 3 28 9 52 13 55 8 5 6 196 -3 240 -2 14 -5 34 -6 45 l-2 20 -10 -20
c-7 -16 -8 -13 -5 15 4 37 -11 80 -31 93 -7 4 -10 14 -6 23 3 9 0 14 -7 12 -7
-2 -15 3 -18 11 -3 8 0 11 7 7 7 -5 9 -1 5 8 -3 9 -10 13 -15 10 -5 -3 -9 2
-9 11 0 23 -39 77 -51 70 -5 -4 -6 0 -4 8 3 7 -3 22 -15 32 -23 21 -27 14 -4
-9 8 -9 11 -16 5 -16 -12 0 -21 13 -26 41 -5 26 -34 48 -55 42 -12 -4 -12 -3
-1 5 10 7 -1 19 -45 48 -71 47 -89 58 -131 78 -58 27 -185 58 -219 54 -19 -2
-34 0 -34 4 0 11 -68 10 -75 -2z m60 -59 c-14 -6 -4 -9 35 -14 89 -10 231 -88
312 -170 73 -73 140 -191 163 -282 1 -5 3 -12 4 -15 5 -12 14 -108 13 -140 -1
-88 -7 -148 -14 -144 -4 2 -6 -4 -5 -14 0 -10 -20 -61 -46 -114 -178 -367
-658 -465 -963 -196 -57 50 -150 177 -161 219 -3 10 -9 17 -13 14 -4 -2 -5 8
-3 23 4 21 2 24 -6 12 -8 -12 -10 -9 -9 15 0 17 -5 65 -12 108 -11 64 -11 90
0 155 7 42 13 87 14 99 1 11 5 19 10 16 5 -3 7 6 4 20 -3 15 -2 24 2 22 11 -7
22 24 13 37 -4 7 -1 8 7 3 10 -6 12 -4 7 9 -4 9 -3 15 1 12 5 -3 17 9 27 27
41 72 125 156 224 224 2 2 1 6 -2 9 -4 4 -15 1 -24 -7 -17 -12 -17 -12 -1 6
13 14 21 16 29 8 12 -12 73 3 65 15 -2 4 6 16 17 27 l20 20 -13 -24 c-11 -21
-10 -23 5 -18 9 4 21 7 26 7 6 0 8 4 5 9 -3 4 7 8 22 9 15 0 63 4 107 10 103
12 167 13 140 3z m280 -19 c-3 -3 -11 0 -18 7 -9 10 -8 11 6 5 10 -3 15 -9 12
-12z m392 -564 c-3 -8 -6 -5 -6 6 -1 11 2 17 5 13 3 -3 4 -12 1 -19z m-1309
-383 c-3 -3 -9 2 -12 12 -6 14 -5 15 5 6 7 -7 10 -15 7 -18z m787 -385 c3 -5
-1 -10 -10 -10 -9 0 -13 5 -10 10 3 6 8 10 10 10 2 0 7 -4 10 -10z m-318 -25
c19 -2 38 -7 42 -11 9 -10 -88 4 -107 16 -14 9 -12 10 7 4 13 -3 39 -8 58 -9z
m106 -22 c-7 -2 -21 -2 -30 0 -10 3 -4 5 12 5 17 0 24 -2 18 -5z m54 1 c-3 -3
-12 -4 -19 -1 -8 3 -5 6 6 6 11 1 17 -2 13 -5z m50 0 c-3 -3 -12 -4 -19 -1 -8
3 -5 6 6 6 11 1 17 -2 13 -5z"/>
<path d="M13045 20278 c-77 -5 -149 -9 -160 -9 -62 -2 -439 -35 -500 -43 -16
-3 -52 -7 -80 -10 -117 -11 -169 -19 -330 -46 -93 -16 -195 -31 -225 -35 -30
-4 -73 -11 -95 -17 -22 -6 -49 -12 -60 -13 -53 -9 -323 -67 -345 -74 -14 -5
-60 -17 -102 -27 -61 -14 -79 -23 -84 -38 -4 -12 -15 -28 -24 -36 -9 -8 -24
-29 -33 -46 -16 -31 -16 -32 4 -27 16 4 18 8 7 14 -9 6 -9 9 -1 9 6 0 14 -4
17 -9 4 -5 21 -5 43 1 21 5 52 11 68 13 17 1 41 5 55 9 14 3 50 9 80 15 72 12
98 18 112 27 7 5 8 3 3 -6 -6 -10 -4 -11 11 -5 10 5 53 12 94 16 106 11 231
27 260 33 29 7 151 16 227 17 33 1 51 5 47 11 -4 7 5 8 25 3 22 -5 31 -3 31 7
0 9 2 10 8 2 4 -7 21 -10 37 -8 17 3 80 7 140 9 61 2 112 4 115 5 16 6 1710 4
1710 -2 0 -5 7 -8 15 -8 8 0 15 5 15 10 0 6 8 10 18 10 11 0 13 -3 5 -8 -6 -4
24 -8 67 -9 42 -1 96 -4 119 -7 28 -3 41 -1 41 7 0 8 2 9 8 1 7 -11 121 -26
217 -29 28 -1 60 -5 73 -9 15 -5 22 -3 22 6 0 8 3 9 8 3 8 -12 23 -16 77 -21
22 -2 60 -6 85 -10 25 -3 59 -8 75 -10 17 -2 58 -8 92 -14 34 -6 66 -9 70 -8
4 1 32 -4 61 -10 29 -7 70 -12 92 -12 21 0 42 -4 45 -10 3 -5 16 -10 28 -10
69 -2 119 -9 131 -19 7 -6 34 -12 60 -13 25 -1 46 -6 46 -10 0 -11 32 -10 49
1 11 7 12 13 4 23 -6 7 -11 16 -12 21 -1 27 -14 77 -20 77 -4 0 -7 8 -8 18 -4
45 -33 91 -65 101 -87 28 -406 84 -688 121 -85 11 -168 22 -185 25 -16 2 -91
9 -165 15 -74 6 -179 15 -232 21 -265 28 -859 36 -1203 17z m2505 -228 c0 -5
-5 -10 -11 -10 -5 0 -7 5 -4 10 3 6 8 10 11 10 2 0 4 -4 4 -10z m-363 -116
c-3 -3 -12 -4 -19 -1 -8 3 -5 6 6 6 11 1 17 -2 13 -5z m423 -84 c0 -5 -7 -7
-15 -4 -8 4 -15 8 -15 10 0 2 7 4 15 4 8 0 15 -4 15 -10z"/>
<path d="M12925 18739 c-469 -7 -543 -11 -855 -50 -937 -117 -1711 -441 -2214
-929 -136 -132 -238 -253 -388 -460 -491 -680 -820 -1340 -983 -1975 -144
-560 -155 -1181 -31 -1690 120 -489 345 -918 661 -1261 187 -203 465 -398 709
-498 202 -83 812 -150 1696 -186 140 -6 309 -12 375 -15 252 -10 2176 -14
2490 -5 345 10 784 27 895 35 36 2 112 7 170 10 522 30 979 87 1152 145 370
124 753 444 1024 855 261 396 413 842 470 1378 19 184 14 546 -10 737 -91 696
-399 1463 -881 2190 -440 665 -750 962 -1276 1225 -429 215 -904 359 -1429
434 -298 43 -743 73 -1000 69 -58 -1 -316 -5 -575 -9z m-1350 -1764 c321 -67
606 -414 740 -902 179 -650 86 -1399 -234 -1877 -85 -129 -230 -265 -340 -320
-269 -136 -550 -74 -786 176 -355 373 -521 1101 -405 1775 23 135 82 363 118
453 70 180 183 359 298 475 189 190 395 265 609 220z m3528 1 c181 -19 385
-164 535 -384 159 -232 265 -539 308 -892 20 -167 15 -541 -10 -690 -102 -606
-365 -1033 -721 -1170 -92 -35 -258 -40 -357 -10 -127 38 -217 95 -340 217
-363 358 -533 1127 -403 1828 102 548 378 965 714 1076 67 23 160 38 196 33
11 -1 46 -5 78 -8z"/>
<path d="M10295 2900 c5 -14 8 -31 8 -37 0 -7 3 -13 6 -13 3 0 6 -13 7 -30 1
-16 7 -37 15 -46 7 -9 14 -22 14 -28 2 -28 27 -96 34 -91 5 2 9 -7 9 -20 0
-34 21 -59 37 -45 10 8 13 6 11 -7 -1 -13 6 -18 21 -17 12 0 20 -3 18 -6 -4
-7 45 -31 130 -65 22 -9 54 -22 70 -30 75 -33 314 -118 381 -135 41 -11 79
-22 85 -25 19 -12 152 -46 189 -48 21 -1 36 -5 34 -9 -9 -14 57 -20 74 -6 15
11 16 11 5 -3 -11 -14 1 -18 110 -38 67 -12 158 -29 202 -38 96 -18 95 -18
215 -36 52 -8 102 -15 110 -16 8 0 65 -7 125 -15 154 -21 512 -54 685 -63 203
-11 875 -8 995 5 55 6 131 13 168 16 76 5 238 29 392 57 55 10 114 21 130 23
39 6 333 80 413 103 34 11 59 23 55 28 -4 4 -2 5 5 1 11 -7 183 47 207 64 6 4
28 13 50 20 22 6 54 18 70 25 192 82 224 98 218 108 -3 6 -1 7 5 3 17 -10 257
116 245 128 -4 4 -1 5 7 2 19 -6 226 127 222 144 -1 6 2 9 7 5 6 -3 26 5 46
17 29 19 35 28 32 50 -2 15 0 25 4 23 8 -5 19 19 19 41 0 11 -5 11 -25 2 -13
-6 -22 -15 -18 -21 4 -6 1 -7 -7 -2 -8 5 -20 -1 -32 -16 -11 -13 -17 -18 -13
-11 3 6 -10 3 -29 -9 -39 -23 -46 -31 -18 -23 9 3 6 -2 -8 -10 -27 -16 -55
-22 -30 -6 8 5 10 10 4 10 -5 0 -19 -7 -30 -16 -10 -8 -13 -12 -5 -8 9 4 12 3
7 -4 -4 -6 -13 -9 -21 -5 -8 3 -15 0 -15 -7 0 -6 -4 -8 -10 -5 -5 3 -10 2 -10
-3 0 -5 -14 -12 -31 -16 -18 -3 -28 -10 -24 -17 4 -5 1 -10 -6 -8 -39 5 -56
-15 -21 -24 9 -3 0 -4 -20 -2 -21 2 -38 -1 -38 -6 0 -5 -3 -8 -7 -7 -5 1 -19
-2 -31 -6 l-24 -8 24 -26 c12 -15 15 -21 6 -13 -9 7 -27 10 -40 7 -13 -3 -17
-3 -10 0 26 12 11 22 -17 11 -17 -6 -28 -14 -25 -19 3 -4 -3 -5 -12 -1 -11 4
-15 3 -11 -4 5 -7 0 -9 -13 -6 -12 3 -20 0 -20 -8 0 -7 -3 -10 -6 -6 -4 3 -25
-4 -48 -16 -22 -12 -45 -22 -51 -23 -43 -6 -74 -18 -68 -27 4 -6 0 -8 -10 -4
-9 3 -19 2 -23 -4 -3 -6 -12 -8 -20 -5 -8 3 -24 -5 -35 -17 -12 -12 -18 -16
-14 -8 6 11 4 13 -11 6 -10 -4 -30 -10 -42 -13 -18 -3 -20 -7 -10 -13 8 -6 0
-9 -24 -9 -20 0 -39 -6 -41 -12 -4 -10 -6 -9 -6 1 -1 10 -4 11 -15 2 -8 -7
-33 -14 -57 -17 -24 -3 -46 -7 -51 -10 -4 -3 -18 -7 -29 -9 -43 -8 -94 -28
-101 -39 -5 -8 -8 -7 -8 2 0 7 -4 11 -8 8 -10 -6 -61 -17 -82 -18 -8 0 -19 -4
-25 -8 -5 -3 -28 -8 -50 -9 -22 -2 -44 -6 -49 -9 -6 -3 -19 -7 -30 -8 -12 -1
-34 -5 -51 -9 -16 -3 -42 -8 -58 -10 -15 -1 -48 -8 -75 -13 -26 -6 -54 -11
-62 -12 -8 0 -35 -3 -60 -6 -57 -5 -100 -9 -224 -19 -66 -5 -94 -11 -85 -17 9
-6 1 -7 -23 -3 -28 4 -38 2 -38 -7 0 -9 -2 -10 -8 -2 -5 8 -23 9 -55 4 -26 -4
-85 -6 -130 -4 -54 2 -77 0 -67 -6 10 -6 2 -7 -24 -3 -27 4 -41 2 -47 -8 -5
-8 -9 -9 -9 -4 0 6 -102 10 -284 10 -156 0 -282 -3 -280 -7 3 -5 1 -8 -5 -8
-5 0 -11 4 -13 9 -2 4 -14 11 -28 15 -19 6 -21 5 -10 -3 12 -9 11 -11 -8 -11
-13 0 -21 4 -18 8 3 5 -9 9 -27 9 -57 1 -272 12 -277 14 -3 1 -27 3 -55 5 -27
1 -68 5 -90 8 -141 19 -213 25 -232 20 -13 -4 -23 -2 -23 3 0 5 -22 10 -49 11
-27 0 -67 5 -88 11 -21 6 -63 13 -93 16 -30 3 -68 8 -85 11 -16 3 -47 7 -68 9
-21 3 -42 7 -46 9 -4 3 -30 8 -57 11 -67 9 -87 12 -104 19 -8 3 -28 8 -45 10
-16 2 -38 7 -47 11 -12 4 -18 3 -18 -5 0 -10 -3 -10 -14 0 -18 14 -116 41
-127 34 -4 -2 -10 0 -14 6 -9 15 -28 12 -19 -2 4 -7 -1 -6 -12 3 -17 15 -92
35 -121 32 -7 0 -13 3 -13 7 0 5 -9 6 -20 3 -12 -3 -20 0 -20 7 0 7 -8 9 -20
5 -11 -3 -20 -2 -20 3 0 8 -6 10 -50 14 -11 1 -20 6 -20 11 0 5 -7 7 -15 3 -8
-3 -15 -2 -15 2 0 4 -18 13 -40 18 -26 8 -37 8 -33 1 3 -6 -4 -3 -16 5 -12 9
-31 14 -42 11 -11 -3 -21 1 -25 11 -3 9 -14 16 -24 16 -10 0 -37 9 -60 19 -24
11 -50 17 -58 13 -11 -4 -13 -2 -7 9 7 11 5 11 -10 -1 -10 -8 -16 -10 -12 -4
6 11 -49 42 -65 36 -5 -1 -8 3 -8 9 0 5 -4 7 -10 4 -5 -3 -10 -2 -10 2 0 5
-10 9 -21 10 -12 1 -29 9 -39 18 -11 10 -24 14 -32 9 -7 -4 -10 -4 -6 1 8 9
-36 35 -59 35 -8 0 -12 4 -9 9 3 5 -1 12 -10 15 -8 3 -12 2 -9 -4 3 -6 -1 -7
-10 -4 -9 4 -13 9 -10 12 2 3 -23 22 -58 43 -45 27 -65 35 -75 27 -9 -8 -11
-7 -7 4 7 17 -20 32 -37 21 -6 -3 -8 -1 -5 4 4 6 -1 17 -10 24 -14 12 -15 11
-8 -11z m5875 -14 c0 -3 -4 -8 -10 -11 -5 -3 -10 -1 -10 4 0 6 5 11 10 11 6 0
10 -2 10 -4z m-5548 -185 c4 -3 -10 -6 -30 -7 -20 -1 -28 1 -18 3 15 4 16 7 5
15 -10 6 -7 7 11 3 14 -4 28 -10 32 -14z m128 -81 c8 -5 11 -10 5 -10 -5 0
-17 5 -25 10 -8 5 -10 10 -5 10 6 0 17 -5 25 -10z m87 -4 c0 -8 -6 -12 -15 -9
-11 5 -11 7 0 14 7 5 13 9 14 9 0 0 1 -6 1 -14z m38 -6 c3 -6 -1 -7 -9 -4 -18
7 -21 14 -7 14 6 0 13 -4 16 -10z m4672 -46 c-3 -3 -12 -4 -19 -1 -8 3 -5 6 6
6 11 1 17 -2 13 -5z m-4460 -30 c-3 -3 -12 -4 -19 -1 -8 3 -5 6 6 6 11 1 17
-2 13 -5z m3990 -150 c-3 -3 -12 -4 -19 -1 -8 3 -5 6 6 6 11 1 17 -2 13 -5z
m-3260 -20 c-3 -3 -12 -4 -19 -1 -8 3 -5 6 6 6 11 1 17 -2 13 -5z m150 -60
c-3 -3 -12 -4 -19 -1 -8 3 -5 6 6 6 11 1 17 -2 13 -5z m80 0 c-3 -3 -12 -4
-19 -1 -8 3 -5 6 6 6 11 1 17 -2 13 -5z m2560 0 c-3 -3 -12 -4 -19 -1 -8 3 -5
6 6 6 11 1 17 -2 13 -5z m-3190 -40 c-3 -3 -12 -4 -19 -1 -8 3 -5 6 6 6 11 1
17 -2 13 -5z m1540 -30 c-3 -3 -12 -4 -19 -1 -8 3 -5 6 6 6 11 1 17 -2 13 -5z
m1280 -140 c-3 -3 -12 -4 -19 -1 -8 3 -5 6 6 6 11 1 17 -2 13 -5z"/>
</g>
</svg>
